<svg width="51" height="50" viewBox="0 0 51 50" fill="none" xmlns="http://www.w3.org/2000/svg">
<path d="M25.2576 0H25.2453C11.4608 0 0.251465 11.2125 0.251465 25C0.251465 30.4687 2.01396 35.5375 5.01083 39.6532L1.89521 48.9407L11.5046 45.8688C15.4577 48.4875 20.1733 50 25.2576 50C39.0421 50 50.2515 38.7843 50.2515 25C50.2515 11.2156 39.0421 0 25.2576 0ZM39.8046 35.3032C39.2015 37.0063 36.8078 38.4187 34.8983 38.8312C33.5921 39.1093 31.8858 39.3313 26.1421 36.95C18.7951 33.9063 14.064 26.4407 13.6952 25.9562C13.3421 25.4718 10.7265 22.0032 10.7265 18.4157C10.7265 14.8281 12.5483 13.0812 13.2827 12.3312C13.8858 11.7156 14.8827 11.4344 15.839 11.4344C16.1483 11.4344 16.4265 11.45 16.6765 11.4625C17.4108 11.4937 17.7796 11.5375 18.264 12.6969C18.8671 14.15 20.3358 17.7375 20.5108 18.1063C20.689 18.475 20.8671 18.975 20.6171 19.4593C20.3828 19.9593 20.1765 20.1812 19.8076 20.6062C19.439 21.0312 19.089 21.3563 18.7201 21.8125C18.3826 22.2093 18.0015 22.6343 18.4265 23.3688C18.8515 24.0875 20.3203 26.4843 22.4826 28.4093C25.2733 30.8937 27.5358 31.6875 28.3451 32.025C28.9483 32.275 29.6671 32.2157 30.1076 31.7468C30.6671 31.1438 31.3576 30.1438 32.0608 29.1593C32.5608 28.4532 33.1921 28.3657 33.8546 28.6157C34.5296 28.85 38.1015 30.6157 38.8358 30.9812C39.5701 31.35 40.0546 31.525 40.2326 31.8343C40.4078 32.1438 40.4078 33.5968 39.8046 35.3032Z" fill="#54CF08"/>
</svg>
