<svg width="16" height="16" viewBox="0 0 16 16" fill="none" xmlns="http://www.w3.org/2000/svg">
<path d="M15.859 3.17878L11.0066 8L15.859 12.8212C15.9468 12.6379 16 12.4352 16 12.2188V3.78125C16 3.56478 15.9468 3.36212 15.859 3.17878ZM14.5938 2.375H1.40625C1.18978 2.375 0.987125 2.42822 0.803781 2.51594L7.00576 8.68667C7.55413 9.23504 8.44587 9.23504 8.99424 8.68667L15.1962 2.51594C15.0129 2.42822 14.8102 2.375 14.5938 2.375ZM0.140938 3.17878C0.0532188 3.36212 0 3.56478 0 3.78125V12.2188C0 12.4352 0.0532188 12.6379 0.140938 12.8212L4.99341 8L0.140938 3.17878Z" fill="#54CF08"/>
<path d="M10.3437 8.66284L9.65706 9.34951C8.74336 10.2632 7.25658 10.2632 6.34288 9.34951L5.65626 8.66284L0.803772 13.4841C0.987116 13.5718 1.18977 13.625 1.40624 13.625H14.5938C14.8102 13.625 15.0129 13.5718 15.1962 13.4841L10.3437 8.66284Z" fill="#54CF08"/>
</svg>
