<svg width="150" height="47" viewBox="0 0 150 47" fill="none" xmlns="http://www.w3.org/2000/svg">
<path d="M69.5166 31.4023V29.6322H81.4381V30.9885L71.6652 40.023H81.9002V41.7931H68.7079V40.4368L78.4808 31.4023H69.5166Z" fill="white"/>
<path d="M95.5147 39.3793C95.4916 39.2644 95.4685 39.1494 95.4685 39.0345C94.2209 40.9425 91.8181 41.977 89.0687 41.977C86.1345 41.977 84.3093 40.3678 84.3093 38.3448C84.3093 34.5977 89.577 34.046 94.5443 34.046C94.7522 34.046 94.9833 34.046 95.2143 34.046C94.8909 31.977 93.0657 31.3563 90.7553 31.3563C88.8377 31.3563 86.9663 32.069 85.9497 33.1724L84.679 31.6092C86.1114 30.2989 88.7222 29.4483 90.9863 29.4483C94.8909 29.4483 97.3399 31.1724 97.3399 35.0805V38C97.3399 39.5632 97.7788 40.046 98.703 40.046C99.0727 40.046 99.7196 39.977 100.043 39.8621L99.6965 41.7471C99.4192 41.8391 98.703 41.931 98.264 41.931C96.7161 41.931 95.7226 41.2414 95.5147 39.3793ZM95.3067 36.023V35.6092C91.1712 35.6092 86.4811 35.7931 86.4811 38.1609C86.4811 39.4943 87.798 40.1379 89.346 40.1379C92.3494 40.1379 95.1681 38.6437 95.3067 36.023Z" fill="white"/>
<path d="M106.54 41.7931L99.9318 29.6322H102.196L107.787 40.023L113.401 29.6322H115.642L109.035 41.7931H106.54Z" fill="white"/>
<path d="M131.486 35.7241C131.486 39.7012 128.552 42 124.162 42C119.772 42 116.815 39.7012 116.815 35.7241C116.815 31.7471 119.772 29.4483 124.139 29.4483C128.552 29.4483 131.486 31.7471 131.486 35.7241ZM118.871 35.7241C118.871 38.5977 121.02 40.092 124.162 40.092C127.281 40.092 129.43 38.5977 129.43 35.7241C129.43 32.8506 127.281 31.3563 124.139 31.3563C121.02 31.3563 118.871 32.8506 118.871 35.7241Z" fill="white"/>
<path d="M133.895 35.7241C133.895 31.7241 136.621 29.4483 140.664 29.4483C143.09 29.4483 145.031 30.2989 146.14 31.8621V24.5517H148.173V41.7931H146.14V39.5632C145.031 41.1264 143.067 41.977 140.641 41.977C136.621 41.977 133.895 39.7012 133.895 35.7241ZM146.117 35.7241C146.117 32.8506 144.014 31.3563 141.011 31.3563C138.03 31.3563 135.951 32.8506 135.951 35.7241C135.951 38.5977 138.03 40.092 141.011 40.092C144.014 40.092 146.117 38.5977 146.117 35.7241Z" fill="white"/>
<path d="M52.5 0H9.5C5.08172 0 1.5 3.58172 1.5 8V36C1.5 40.4183 5.08172 44 9.5 44H52.5C56.9183 44 60.5 40.4183 60.5 36V8C60.5 3.58172 56.9183 0 52.5 0Z" fill="#0E0E0E"/>
<path d="M15.4998 43.2163V26.0001L22.4998 27.2591V43.2162C22.4998 45.306 20.9327 47.0001 18.9998 47.0001C17.0668 47.0001 15.4998 45.306 15.4998 43.2163Z" fill="#0A4F09"/>
<path d="M37.677 34.6315C37.544 34.6315 37.4104 34.6084 37.2823 34.5612L22.203 29.1254L19.9131 27.9344V16.6526L22.203 15.5509L37.2879 10.1131C37.4608 10.0505 37.6462 10.0305 37.8285 10.0549C38.0107 10.0792 38.1844 10.1471 38.3349 10.2528C38.4854 10.3586 38.6082 10.499 38.693 10.6623C38.7778 10.8256 38.8221 11.007 38.8221 11.1911V33.4852C38.8221 33.6357 38.7925 33.7848 38.7349 33.9239C38.6774 34.063 38.593 34.1894 38.4867 34.2958C38.3804 34.4023 38.2541 34.4867 38.1152 34.5443C37.9763 34.6019 37.8273 34.6315 37.677 34.6315Z" fill="#EAF2F8"/>
<path d="M19.9133 22.3164V27.9333L22.2033 29.1243L37.2825 34.5601C37.4555 34.6238 37.6414 34.6447 37.8242 34.621C38.007 34.5973 38.1815 34.5298 38.3326 34.4241C38.4838 34.3185 38.6073 34.1778 38.6925 34.0142C38.7778 33.8505 38.8223 33.6687 38.8223 33.4841V22.3164H19.9133Z" fill="#E0E8F1"/>
<path d="M36.4997 35.0004L33.3963 33.835L21.9998 29.0004L21.9997 26.0004H36.4997V35.0004Z" fill="#53C51E"/>
<path d="M23.6997 17.8792H25.2997V26.2792H23.6997V17.8792ZM28.4997 17.8792H30.0997V26.2792H28.4997V17.8792ZM33.2997 17.8792H34.8997V26.2792H33.2997V17.8792Z" fill="#54CF08"/>
<path d="M23.6997 19.4778H25.2997V21.0778H23.6997V19.4778ZM28.4997 19.4778H30.0997V21.0778H28.4997V19.4778ZM33.2997 19.4778H34.8997V21.0778H33.2997V19.4778Z" fill="#369813"/>
<path d="M26.0998 28.6784V29.4784H24.4998V28.6784C24.4998 28.4662 24.584 28.2627 24.7341 28.1127C24.8841 27.9626 25.0876 27.8784 25.2998 27.8784C25.5119 27.8784 25.7154 27.9626 25.8654 28.1127C26.0155 28.2627 26.0998 28.4662 26.0998 28.6784ZM30.0997 28.6784V29.4784H28.4997V28.6784C28.4997 28.4662 28.584 28.2627 28.7341 28.1127C28.8841 27.9626 29.0876 27.8784 29.2997 27.8784C29.5119 27.8784 29.7154 27.9626 29.8654 28.1127C30.0155 28.2627 30.0997 28.4662 30.0997 28.6784ZM34.0997 28.6784V29.4784H32.4997V28.6784C32.4997 28.4662 32.584 28.2627 32.7341 28.1127C32.8841 27.9626 33.0876 27.8784 33.2997 27.8784C33.5119 27.8784 33.7154 27.9626 33.8654 28.1127C34.0155 28.2627 34.0997 28.4662 34.0997 28.6784Z" fill="#39700E"/>
<path d="M26.8998 26.2794H22.0999V23.0794L26.8998 26.2794ZM31.6998 26.2794H26.8998V23.0794L31.6998 26.2794Z" fill="#39700E"/>
<path d="M26.0998 26.2779H22.0999V23.6114L26.0998 26.2779ZM30.8998 26.2779H26.8998V23.6114L30.8998 26.2779Z" fill="#358310"/>
<path d="M22.0999 26.2776H36.4998V26.6776H22.0999V26.2776Z" fill="#4BB01B"/>
<path d="M36.4997 26.2794H31.6997V23.0794L36.4997 26.2794Z" fill="#39700E"/>
<path d="M35.6997 26.2779H31.6997V23.6114L35.6997 26.2779Z" fill="#358310"/>
<path d="M38.6339 37.2856H37.6773C37.0449 37.2856 36.5323 36.7723 36.5323 36.1393V8.53609C36.5323 7.90301 37.0449 7.38977 37.6773 7.38977H38.6339C40.5797 7.38977 42.1627 8.97467 42.1627 10.9227V33.7525C42.1627 35.7007 40.5797 37.2856 38.6339 37.2856ZM22.2033 29.1249H16.8672C14.5618 29.1249 12.6929 27.2537 12.6929 24.9456V19.7296C12.6929 17.4215 14.5618 15.5503 16.8672 15.5503H22.2033V29.1249Z" fill="#5FFF79"/>
<path d="M50.6294 23.4637H46.8313C46.1989 23.4637 45.6863 22.9504 45.6863 22.3173C45.6863 21.6843 46.1989 21.171 46.8313 21.171H50.6294C51.2618 21.171 51.7744 21.6843 51.7744 22.3173C51.7744 22.9504 51.2618 23.4637 50.6294 23.4637Z" fill="#E0E8F1"/>
<path d="M50.6287 31.934C50.4656 31.934 50.3 31.8989 50.1426 31.8249L46.3445 30.0387C45.7721 29.7695 45.5261 29.0868 45.7949 28.5137C46.0638 27.9407 46.7457 27.6946 47.3181 27.9635L51.1163 29.7498C51.6887 30.019 51.9347 30.7017 51.6658 31.2748C51.4709 31.6902 51.0586 31.934 50.6287 31.934Z" fill="#CBDAEA"/>
<path d="M46.832 16.7798C46.402 16.7798 45.9899 16.5361 45.7949 16.1206C45.5261 15.5475 45.7721 14.8647 46.3444 14.5956L50.1426 12.8093C50.7147 12.5403 51.3969 12.7864 51.6658 13.3595C51.9346 13.9326 51.6886 14.6153 51.1163 14.8845L47.3181 16.6707C47.1661 16.7425 47.0001 16.7797 46.832 16.7798Z" fill="#E0E8F1"/>
<path d="M12.6929 22.3165V24.9451C12.6929 27.2532 14.5618 29.1244 16.8672 29.1244H22.2033V22.3165H12.6929ZM36.5323 22.3165V36.1388C36.5323 36.7719 37.0449 37.2851 37.6773 37.2851H38.6339C40.5797 37.2851 42.1627 35.7002 42.1627 33.7521V22.3165H36.5323Z" fill="#0AEF3C"/>
<path d="M46.8313 23.4628H50.6294C51.2618 23.4628 51.7744 22.9496 51.7744 22.3165H45.6863C45.6863 22.9496 46.1989 23.4628 46.8313 23.4628Z" fill="#CBDAEA"/>
<path d="M149 10.7041C149 16.1381 144.961 19.0715 139.118 19.0715H130.919V2.24054H139.118C144.961 2.24054 149 5.27012 149 10.7041ZM145.61 10.7041C145.61 7.16962 142.917 5.31821 139.118 5.31821H134.237V15.9939H139.478C143.085 15.8977 145.61 14.1425 145.61 10.7041Z" fill="white"/>
<path d="M107.352 10.6559C107.352 5.1498 111.367 2 117.354 2C123.341 2 127.356 5.1498 127.356 10.6559C127.356 16.1621 123.341 19.3119 117.354 19.3119C111.367 19.3119 107.352 16.1621 107.352 10.6559ZM117.354 5.05362C113.483 5.05362 110.742 7.00121 110.742 10.6559C110.742 14.3107 113.483 16.2583 117.354 16.2583C121.225 16.2583 123.966 14.3107 123.966 10.6559C123.966 7.00121 121.225 5.05362 117.354 5.05362Z" fill="white"/>
<path d="M102.215 19.0715L96.0121 11.3533H91.9245V19.0715H88.6064V2.24054H99.7389C102.624 2.24054 104.74 3.99577 104.74 6.80895C104.74 9.50191 102.793 11.2091 100.1 11.3533L106.327 19.0715H102.215ZM99.7389 5.31821H91.9245V8.27565H99.7389C100.677 8.27565 101.398 7.79477 101.398 6.80895C101.398 5.82314 100.677 5.31821 99.7389 5.31821Z" fill="white"/>
<path d="M80.3729 11.8102H72.3181V19.0715H69V2.24054H80.3729C83.2583 2.24054 85.3982 4.18813 85.3982 7.02535C85.3982 9.86258 83.2583 11.8102 80.3729 11.8102ZM80.3729 5.31821H72.3181V8.7325H80.3729C81.4309 8.7325 82.056 8.05926 82.056 7.02535C82.056 5.99145 81.4309 5.31821 80.3729 5.31821Z" fill="white"/>
</svg>
