<svg width="26" height="25" viewBox="0 0 26 25" fill="none" xmlns="http://www.w3.org/2000/svg">
<path d="M13 2.02963C13 0.908695 12.0855 -0.0167976 10.9793 0.164413C10.0334 0.319368 9.10616 0.582973 8.21646 0.951502C6.69989 1.57969 5.3219 2.50043 4.16117 3.66116C3.00043 4.8219 2.07969 6.19989 1.45151 7.71646C0.823323 9.23303 0.5 10.8585 0.5 12.5C0.5 14.1415 0.823323 15.767 1.45151 17.2835C2.07969 18.8001 3.00043 20.1781 4.16116 21.3388C5.3219 22.4996 6.69989 23.4203 8.21646 24.0485C9.10616 24.417 10.0333 24.6806 10.9793 24.8356C12.0854 25.0168 13 24.0913 13 22.9704C13 21.8494 12.0785 20.9648 10.9899 20.6979C10.5746 20.5961 10.1667 20.4626 9.76987 20.2982C8.74579 19.874 7.8153 19.2523 7.0315 18.4685C6.24771 17.6847 5.62597 16.7542 5.20178 15.7301C4.77759 14.706 4.55927 13.6085 4.55927 12.5C4.55927 11.3915 4.77759 10.2939 5.20178 9.26987C5.62597 8.24579 6.24771 7.31529 7.0315 6.5315C7.8153 5.74771 8.7458 5.12597 9.76987 4.70178C10.1667 4.5374 10.5746 4.40394 10.9899 4.30212C12.0785 4.03517 13 3.15057 13 2.02963Z" fill="black"/>
<path d="M14 23.0557C14 23.5772 14.4235 24.004 14.9432 23.9613C16.1303 23.8636 17.2969 23.5819 18.4009 23.1246C19.7961 22.5467 21.0639 21.6996 22.1317 20.6317C23.1996 19.5639 24.0467 18.2961 24.6246 16.9009C25.2025 15.5056 25.5 14.0102 25.5 12.5C25.5 10.9898 25.2025 9.49438 24.6246 8.09912C24.0467 6.70389 23.1996 5.43613 22.1317 4.36825C21.0639 3.30038 19.7961 2.45329 18.4009 1.87536C17.2969 1.4181 16.1303 1.13642 14.9432 1.03872C14.4235 0.995955 14 1.42275 14 1.94426C14 2.46577 14.4238 2.88374 14.9428 2.93489C15.8816 3.02743 16.8034 3.25785 17.6781 3.62017C18.8443 4.10319 19.9038 4.81117 20.7963 5.70367C21.6888 6.59617 22.3968 7.65574 22.8798 8.82185C23.3628 9.98796 23.6114 11.2378 23.6114 12.5C23.6114 13.7622 23.3628 15.012 22.8798 16.1781C22.3968 17.3443 21.6888 18.4038 20.7963 19.2963C19.9038 20.1888 18.8442 20.8968 17.6781 21.3798C16.8034 21.7421 15.8816 21.9726 14.9428 22.0651C14.4238 22.1162 14 22.5342 14 23.0557Z" fill="#29C743"/>
</svg>
