<svg width="25" height="25" viewBox="0 0 25 25" fill="none" xmlns="http://www.w3.org/2000/svg">
<path d="M12.5 2.02966C12.5 0.908725 11.5855 -0.0167671 10.4793 0.164443C9.53335 0.319398 8.60616 0.583003 7.71646 0.951532C6.19989 1.57972 4.8219 2.50046 3.66117 3.66119C2.50043 4.82193 1.57969 6.19992 0.951506 7.71649C0.323323 9.23306 7.1753e-08 10.8585 0 12.5C-7.1754e-08 14.1415 0.323323 15.767 0.951506 17.2835C1.57969 18.8001 2.50043 20.1781 3.66116 21.3388C4.8219 22.4996 6.19989 23.4203 7.71646 24.0485C8.60616 24.417 9.53334 24.6806 10.4793 24.8356C11.5854 25.0168 12.5 24.0913 12.5 22.9704C12.5 21.8494 11.5785 20.9648 10.4899 20.6979C10.0746 20.5961 9.66671 20.4626 9.26987 20.2982C8.24579 19.874 7.3153 19.2523 6.5315 18.4685C5.74771 17.6847 5.12597 16.7542 4.70178 15.7301C4.27759 14.706 4.05927 13.6085 4.05927 12.5C4.05927 11.3915 4.27759 10.2939 4.70178 9.2699C5.12597 8.24582 5.74771 7.31532 6.5315 6.53153C7.3153 5.74774 8.2458 5.126 9.26987 4.70181C9.66671 4.53743 10.0746 4.40397 10.4899 4.30215C11.5785 4.0352 12.5 3.1506 12.5 2.02966Z" fill="white"/>
<path d="M13.5 23.0557C13.5 23.5772 13.9235 24.004 14.4432 23.9613C15.6303 23.8636 16.7969 23.5819 17.9009 23.1246C19.2961 22.5467 20.5639 21.6996 21.6317 20.6317C22.6996 19.5639 23.5467 18.2961 24.1246 16.9009C24.7025 15.5056 25 14.0102 25 12.5C25 10.9898 24.7025 9.49438 24.1246 8.09912C23.5467 6.70389 22.6996 5.43613 21.6317 4.36825C20.5639 3.30038 19.2961 2.45329 17.9009 1.87536C16.7969 1.4181 15.6303 1.13642 14.4432 1.03872C13.9235 0.995955 13.5 1.42275 13.5 1.94426C13.5 2.46577 13.9238 2.88374 14.4428 2.93489C15.3816 3.02743 16.3034 3.25785 17.1781 3.62017C18.3443 4.10319 19.4038 4.81117 20.2963 5.70367C21.1888 6.59617 21.8968 7.65574 22.3798 8.82185C22.8628 9.98796 23.1114 11.2378 23.1114 12.5C23.1114 13.7622 22.8628 15.012 22.3798 16.1781C21.8968 17.3443 21.1888 18.4038 20.2963 19.2963C19.4038 20.1888 18.3442 20.8968 17.1781 21.3798C16.3034 21.7421 15.3816 21.9726 14.4428 22.0651C13.9238 22.1162 13.5 22.5342 13.5 23.0557Z" fill="#29C743"/>
</svg>
