<svg width="60" height="47" viewBox="0 0 60 47" fill="none" xmlns="http://www.w3.org/2000/svg">
<path d="M51.5 0H8.5C4.08172 0 0.5 3.58172 0.5 8V36C0.5 40.4183 4.08172 44 8.5 44H51.5C55.9183 44 59.5 40.4183 59.5 36V8C59.5 3.58172 55.9183 0 51.5 0Z" fill="#0E0E0E"/>
<path d="M14.4998 43.2163V26.0001L21.4998 27.2591V43.2162C21.4998 45.306 19.9327 47.0001 17.9998 47.0001C16.0668 47.0001 14.4998 45.306 14.4998 43.2163Z" fill="#0A4F09"/>
<path d="M36.677 34.6315C36.544 34.6315 36.4104 34.6084 36.2823 34.5612L21.203 29.1254L18.9131 27.9344V16.6526L21.203 15.5509L36.2879 10.1131C36.4608 10.0505 36.6462 10.0305 36.8285 10.0549C37.0107 10.0792 37.1844 10.1471 37.3349 10.2528C37.4854 10.3586 37.6082 10.499 37.693 10.6623C37.7778 10.8256 37.8221 11.007 37.8221 11.1911V33.4852C37.8221 33.6357 37.7925 33.7848 37.7349 33.9239C37.6774 34.063 37.593 34.1894 37.4867 34.2958C37.3804 34.4023 37.2541 34.4867 37.1152 34.5443C36.9763 34.6019 36.8273 34.6315 36.677 34.6315Z" fill="#EAF2F8"/>
<path d="M18.9133 22.3164V27.9333L21.2033 29.1243L36.2825 34.5601C36.4555 34.6238 36.6414 34.6447 36.8242 34.621C37.007 34.5973 37.1815 34.5298 37.3326 34.4241C37.4838 34.3185 37.6073 34.1778 37.6925 34.0142C37.7778 33.8505 37.8223 33.6687 37.8223 33.4841V22.3164H18.9133Z" fill="#E0E8F1"/>
<path d="M35.4997 35.0004L32.3963 33.835L20.9998 29.0004L20.9997 26.0004H35.4997V35.0004Z" fill="#53C51E"/>
<path d="M22.6997 17.8792H24.2997V26.2792H22.6997V17.8792ZM27.4997 17.8792H29.0997V26.2792H27.4997V17.8792ZM32.2997 17.8792H33.8997V26.2792H32.2997V17.8792Z" fill="#54CF08"/>
<path d="M22.6997 19.4778H24.2997V21.0778H22.6997V19.4778ZM27.4997 19.4778H29.0997V21.0778H27.4997V19.4778ZM32.2997 19.4778H33.8997V21.0778H32.2997V19.4778Z" fill="#369813"/>
<path d="M25.0998 28.6784V29.4784H23.4998V28.6784C23.4998 28.4662 23.584 28.2627 23.7341 28.1127C23.8841 27.9626 24.0876 27.8784 24.2998 27.8784C24.5119 27.8784 24.7154 27.9626 24.8654 28.1127C25.0155 28.2627 25.0998 28.4662 25.0998 28.6784ZM29.0997 28.6784V29.4784H27.4997V28.6784C27.4997 28.4662 27.584 28.2627 27.7341 28.1127C27.8841 27.9626 28.0876 27.8784 28.2997 27.8784C28.5119 27.8784 28.7154 27.9626 28.8654 28.1127C29.0155 28.2627 29.0997 28.4662 29.0997 28.6784ZM33.0997 28.6784V29.4784H31.4997V28.6784C31.4997 28.4662 31.584 28.2627 31.7341 28.1127C31.8841 27.9626 32.0876 27.8784 32.2997 27.8784C32.5119 27.8784 32.7154 27.9626 32.8654 28.1127C33.0155 28.2627 33.0997 28.4662 33.0997 28.6784Z" fill="#39700E"/>
<path d="M25.8998 26.2794H21.0999V23.0794L25.8998 26.2794ZM30.6998 26.2794H25.8998V23.0794L30.6998 26.2794Z" fill="#39700E"/>
<path d="M25.0998 26.2779H21.0999V23.6114L25.0998 26.2779ZM29.8998 26.2779H25.8998V23.6114L29.8998 26.2779Z" fill="#358310"/>
<path d="M21.0999 26.2776H35.4998V26.6776H21.0999V26.2776Z" fill="#4BB01B"/>
<path d="M35.4997 26.2794H30.6997V23.0794L35.4997 26.2794Z" fill="#39700E"/>
<path d="M34.6997 26.2779H30.6997V23.6114L34.6997 26.2779Z" fill="#358310"/>
<path d="M37.6339 37.2856H36.6773C36.0449 37.2856 35.5323 36.7723 35.5323 36.1393V8.53609C35.5323 7.90301 36.0449 7.38977 36.6773 7.38977H37.6339C39.5797 7.38977 41.1627 8.97467 41.1627 10.9227V33.7525C41.1627 35.7007 39.5797 37.2856 37.6339 37.2856ZM21.2033 29.1249H15.8672C13.5618 29.1249 11.6929 27.2537 11.6929 24.9456V19.7296C11.6929 17.4215 13.5618 15.5503 15.8672 15.5503H21.2033V29.1249Z" fill="#5FFF79"/>
<path d="M49.6294 23.4637H45.8313C45.1989 23.4637 44.6863 22.9504 44.6863 22.3173C44.6863 21.6843 45.1989 21.171 45.8313 21.171H49.6294C50.2618 21.171 50.7744 21.6843 50.7744 22.3173C50.7744 22.9504 50.2618 23.4637 49.6294 23.4637Z" fill="#E0E8F1"/>
<path d="M49.6287 31.934C49.4656 31.934 49.3 31.8989 49.1426 31.8249L45.3445 30.0387C44.7721 29.7695 44.5261 29.0868 44.7949 28.5137C45.0638 27.9407 45.7457 27.6946 46.3181 27.9635L50.1163 29.7498C50.6887 30.019 50.9347 30.7017 50.6658 31.2748C50.4709 31.6902 50.0586 31.934 49.6287 31.934Z" fill="#CBDAEA"/>
<path d="M45.832 16.7798C45.402 16.7798 44.9899 16.5361 44.7949 16.1206C44.5261 15.5475 44.7721 14.8647 45.3444 14.5956L49.1426 12.8093C49.7147 12.5403 50.3969 12.7864 50.6658 13.3595C50.9346 13.9326 50.6886 14.6153 50.1163 14.8845L46.3181 16.6707C46.1661 16.7425 46.0001 16.7797 45.832 16.7798Z" fill="#E0E8F1"/>
<path d="M11.6929 22.3165V24.9451C11.6929 27.2532 13.5618 29.1244 15.8672 29.1244H21.2033V22.3165H11.6929ZM35.5323 22.3165V36.1388C35.5323 36.7719 36.0449 37.2851 36.6773 37.2851H37.6339C39.5797 37.2851 41.1627 35.7002 41.1627 33.7521V22.3165H35.5323Z" fill="#0AEF3C"/>
<path d="M45.8313 23.4628H49.6294C50.2618 23.4628 50.7744 22.9496 50.7744 22.3165H44.6863C44.6863 22.9496 45.1989 23.4628 45.8313 23.4628Z" fill="#CBDAEA"/>
</svg>
