<svg width="25" height="25" viewBox="0 0 25 25" fill="none" xmlns="http://www.w3.org/2000/svg">
<path d="M13.5 23.0558C13.5 23.5773 13.9235 24.0041 14.4432 23.9614C15.6303 23.8637 16.7969 23.582 17.9009 23.1247C19.2961 22.5468 20.5639 21.6997 21.6317 20.6318C22.6996 19.564 23.5467 18.2962 24.1246 16.901C24.7025 15.5057 25 14.0103 25 12.5001C25 10.9899 24.7025 9.4945 24.1246 8.09925C23.5467 6.70401 22.6996 5.43626 21.6317 4.36838C20.5639 3.30051 19.2961 2.45342 17.9009 1.87549C16.7969 1.41823 15.6303 1.13655 14.4432 1.03885C13.9235 0.996077 13.5 1.42288 13.5 1.94439C13.5 2.4659 13.9238 2.88387 14.4428 2.93502C15.3816 3.02756 16.3034 3.25798 17.1781 3.6203C18.3443 4.10332 19.4038 4.8113 20.2963 5.7038C21.1888 6.5963 21.8968 7.65586 22.3798 8.82197C22.8628 9.98809 23.1114 11.2379 23.1114 12.5001C23.1114 13.7623 22.8628 15.0121 22.3798 16.1782C21.8968 17.3444 21.1888 18.4039 20.2963 19.2964C19.4038 20.1889 18.3442 20.8969 17.1781 21.3799C16.3034 21.7422 15.3816 21.9727 14.4428 22.0652C13.9238 22.1163 13.5 22.5343 13.5 23.0558Z" fill="white"/>
<g clip-path="url(#clip0_14_52)">
<path d="M18.6282 7.77843C18.1332 7.25175 17.3293 7.25208 16.8336 7.77843L8.75659 16.3606L5.1667 12.5464C4.671 12.0197 3.86748 12.0197 3.37178 12.5464C2.87607 13.0731 2.87607 13.9268 3.37178 14.4535L7.85894 19.2211C8.10663 19.4843 8.43143 19.6162 8.75625 19.6162C9.08107 19.6162 9.40617 19.4846 9.65387 19.2211L18.6282 9.68551C19.1239 9.15919 19.1239 8.30508 18.6282 7.77843Z" fill="white"/>
</g>
<defs>
<clipPath id="clip0_14_52">
<rect width="16" height="17" fill="white" transform="translate(3 5)"/>
</clipPath>
</defs>
</svg>
