<svg width="16" height="16" viewBox="0 0 16 16" fill="none" xmlns="http://www.w3.org/2000/svg">
<path d="M15.7483 12.0871C15.2302 11.0923 14.4608 10.2964 13.4627 9.72229C13.0777 9.49968 12.7142 9.39141 12.3514 9.39141C12.2102 9.39141 12.0686 9.40848 11.9297 9.44181C11.4689 9.55349 11.0263 9.76907 10.5768 10.101C10.4349 10.2057 10.2612 10.2588 10.0606 10.2588C9.81646 10.2588 9.55203 10.1749 9.37102 10.0401C8.05667 9.06027 6.94136 7.94507 5.96179 6.63093C5.7692 6.37227 5.61656 5.81003 5.90067 5.42496C6.23262 4.9753 6.44824 4.53271 6.56003 4.07123C6.67976 3.57393 6.58798 3.07276 6.28003 2.54C5.7052 1.54074 4.90935 0.771456 3.91479 0.253316C3.5925 0.0853275 3.26271 0 2.93459 0C2.38588 0 1.87231 0.238339 1.44968 0.688795C1.06117 1.10223 0.717682 1.54003 0.321354 2.07012C-0.0414208 2.55582 -0.0115118 3.1161 0.0149308 3.61042L0.0155975 3.62095C0.0601277 4.24793 0.294334 4.98992 0.731549 5.88859C1.47119 7.40965 2.52174 8.85403 3.94292 10.304C4.23486 10.6021 5.39912 11.7664 5.69742 12.0583C7.14771 13.48 8.59208 14.5305 10.1129 15.27C11.0118 15.7073 11.7535 15.9414 12.3807 15.986L12.3912 15.9867C12.5202 15.9935 12.6582 16 12.7923 16C13.1235 16 13.5522 15.9636 13.9315 15.6801C14.4617 15.2839 14.8996 14.9403 15.3125 14.5523C16.0364 13.8732 16.1992 12.9515 15.7483 12.0871Z" fill="#54CF08"/>
</svg>
