<svg width="25" height="25" viewBox="0 0 25 25" fill="none" xmlns="http://www.w3.org/2000/svg">
<path d="M12.5 2.0296C12.5 0.908664 11.5855 -0.0168281 10.4793 0.164382C9.53335 0.319337 8.60616 0.582942 7.71646 0.951471C6.19989 1.57966 4.8219 2.5004 3.66117 3.66113C2.50043 4.82187 1.57969 6.19986 0.951506 7.71643C0.323323 9.233 7.1753e-08 10.8585 0 12.5C-7.1754e-08 14.1415 0.323323 15.767 0.951506 17.2835C1.57969 18.8001 2.50043 20.1781 3.66116 21.3388C4.8219 22.4996 6.19989 23.4203 7.71646 24.0485C8.60616 24.417 9.53334 24.6806 10.4793 24.8356C11.5854 25.0168 12.5 24.0913 12.5 22.9704C12.5 21.8494 11.5785 20.9648 10.4899 20.6979C10.0746 20.5961 9.66671 20.4626 9.26987 20.2982C8.24579 19.874 7.3153 19.2523 6.5315 18.4685C5.74771 17.6847 5.12597 16.7542 4.70178 15.7301C4.27759 14.706 4.05927 13.6085 4.05927 12.5C4.05927 11.3915 4.27759 10.2939 4.70178 9.26984C5.12597 8.24576 5.74771 7.31526 6.5315 6.53147C7.3153 5.74768 8.2458 5.12594 9.26987 4.70175C9.66671 4.53737 10.0746 4.40391 10.4899 4.30209C11.5785 4.03514 12.5 3.15054 12.5 2.0296Z" fill="white"/>
<g clip-path="url(#clip0_14_31)">
<path d="M17.0613 12.9999L21.7801 8.28107C21.8499 8.21142 21.9052 8.12871 21.9429 8.03767C21.9806 7.94664 22.0001 7.84905 22.0001 7.7505C22.0001 7.65195 21.9806 7.55437 21.9429 7.46333C21.9052 7.37229 21.8499 7.28958 21.7801 7.21993C21.7105 7.15021 21.6278 7.0949 21.5367 7.05716C21.4457 7.01942 21.3481 7 21.2496 7C21.151 7 21.0534 7.01942 20.9624 7.05716C20.8713 7.0949 20.7886 7.15021 20.719 7.21993L16.0001 11.9388L11.281 7.21993C11.2114 7.15021 11.1287 7.0949 11.0376 7.05716C10.9466 7.01942 10.849 7 10.7505 7C10.6519 7 10.5543 7.01942 10.4633 7.05716C10.3723 7.0949 10.2895 7.15021 10.2199 7.21993C10.1502 7.28958 10.0949 7.37229 10.0571 7.46333C10.0194 7.55437 9.99997 7.65195 9.99997 7.7505C9.99997 7.84905 10.0194 7.94664 10.0571 8.03767C10.0949 8.12871 10.1502 8.21142 10.2199 8.28107L14.939 12.9999L10.2199 17.7188C10.1502 17.7884 10.095 17.8712 10.0573 17.9622C10.0196 18.0532 10.0002 18.1508 10.0002 18.2493C10.0002 18.3478 10.0196 18.4454 10.0574 18.5364C10.0951 18.6274 10.1503 18.7101 10.22 18.7798C10.2897 18.8494 10.3724 18.9047 10.4634 18.9424C10.5545 18.9801 10.652 18.9995 10.7506 18.9995C10.8491 18.9995 10.9466 18.98 11.0377 18.9423C11.1287 18.9046 11.2114 18.8493 11.281 18.7797L16.0001 14.0608L20.719 18.7797C20.8656 18.9263 21.0577 18.9995 21.2496 18.9995C21.4414 18.9995 21.6335 18.9263 21.7801 18.7797C21.8499 18.71 21.9052 18.6273 21.9429 18.5363C21.9806 18.4452 22.0001 18.3476 22.0001 18.2491C22.0001 18.1505 21.9806 18.053 21.9429 17.9619C21.9052 17.8709 21.8499 17.7882 21.7801 17.7185L17.0613 12.9999Z" fill="white"/>
</g>
<defs>
<clipPath id="clip0_14_31">
<rect width="12" height="12" fill="white" transform="translate(10 7)"/>
</clipPath>
</defs>
</svg>
